<svg id="Layer_1" data-name="Layer 1" xmlns="http://www.w3.org/2000/svg" xmlns:xlink="http://www.w3.org/1999/xlink" viewBox="0 0 500 500"><defs><style>.cls-1{fill:#502d16;}.cls-2{fill:url(#radial-gradient);}.cls-3{font-size:41.4px;fill:#fff;stroke:#000;stroke-miterlimit:10;font-family:ComicSansMS-Bold, Comic Sans MS;font-weight:700;}</style><radialGradient id="radial-gradient" cx="270.48" cy="374.32" r="168.96" gradientTransform="matrix(0.94, 0, 0, -0.95, 1.63, 502.28)" gradientUnits="userSpaceOnUse"><stop offset="0" stop-color="#0bb300"/><stop offset="1" stop-color="#237900"/></radialGradient></defs><g id="Layer_1-2" data-name="Layer 1"><path id="path2471" class="cls-1" d="M435,75c-12.39-23.36-38.1-41.33-64.78-50.24-18-6-39.57-9.29-67.08-7-35.79,3-59.24,18.8-80.86,38.6-6.61-2.69-19-4.92-25.73-2.79-19.56,6.23-32.69,26.12-40,44.19C145,86.28,119.5,79.89,101.49,88c-20.42,9.18-34,33.93-35.38,59.08a78.45,78.45,0,0,0,25.73,61.86c-6.38,31.73,12.85,67.73,45.94,67,18-.4,29.6-12.46,39.05-24.65,2.64,18.13,2.14,29.88.92,46.05-2.6,34.69-9.09,76-15.16,114-2.4,15-4.64,23.53,4.6,31.16,5.1,4.22,16.37,8.61,24.35,10.7,19,5,43.55,6.66,59.72,5.58,23-1.52,46.16-4.24,62.49-13,4.22-2.27,10.74-7.68,11.94-12.09,2.08-7.62-2.41-20.19-3.67-27.45-1.34-7.66-2.59-17.84-3.68-26.51-2.34-18.55-5.3-38.1-6-55.82-1.25-32.59,5.51-67.46,7.35-97.21,5.13,9.06,10.43,18,17.46,25.12,8.25,6.14,17.24,11.11,28.48,12.09,29.69,2.57,47.95-19.77,55.13-41.4,2-6.11,6.78-24.36,6.9-26,.58-8.51-6-13.43-7.36-20.93,11.8-15,22.48-29.33,24.35-52.56A85.14,85.14,0,0,0,435,75ZM241.61,250.78c-5.74-10.26-8.12-23.4-13.12-35.09,7-6.68,12.54-14.49,18.64-22.12,2.39.84,4.25,2.21,6.43,3.26C249.64,214.88,247,234.23,241.61,250.78Z"/></g><g id="Layer_3" data-name="Layer 3"><path id="path2479" class="cls-2" d="M442.39,111.71c-1.59-37.53-30.58-66.23-60.19-79.08-20.11-8.73-38.35-12.57-64.32-13-41-.73-73.13,18.83-94.64,40.46-20-11.81-41.72,1.49-52.38,17.21-5.15,7.6-9.22,17.56-12.4,25.59-11.88-6.92-22.19-18-41.35-15.82C89,90.17,70.66,118.47,69.33,145.66c-1.24,25.08,10.4,49.15,25.27,61.87-3.76,17.66,1.71,34.85,7.81,44.18,13.38,20.49,39.39,28.27,58.8,12.56,12.41-10,19.88-29.34,19.3-52.09,6.62,3.84,13.33,9.21,23,9.76,21.84,1.25,33.32-18.9,42.73-31.63,19.92,11.89,49.22,19.8,72.59,21.4,4,14.23,9.37,27.61,18.84,36.28,5.79,5.31,15.38,11.33,24.35,12.56,33.31,4.59,49.53-19.62,57.52-44.82,1-3.2,6.12-19.2,5.88-22.16-.54-6.65-7.26-10.75-7.81-18.61C431.66,156.79,443.41,136,442.39,111.71Z"/></g><text class="cls-3" transform="translate(50 319.33)">Tilfeldigtrefakta.no</text></svg>